# Blender 4.5.0
# www.blender.org
mtllib banner.mtl
o flag
v -0.543572 -5.241243 -0.533402
v -0.543572 44.039852 -0.533402
v -0.543572 -5.241243 0.535398
v -0.543572 44.039852 0.535398
v 0.458428 -5.241243 -0.533402
v 0.458428 44.039852 -0.533402
v 0.458428 -5.241243 0.535398
v 0.458428 44.039852 0.535398
v -19.753599 31.074223 -0.462508
v -19.753599 41.649487 -0.462508
v -18.855709 31.074223 -0.975180
v -18.855709 41.649487 -0.975179
v -18.229603 31.074223 -1.332998
v -18.229603 41.649487 -1.332998
v -17.550665 31.074223 -1.601055
v -17.550665 41.649483 -1.601056
v -16.821354 31.074223 -1.796366
v -16.821354 41.649483 -1.796365
v -16.005564 31.074223 -1.856682
v -16.005564 41.649483 -1.856682
v -15.163716 31.074223 -1.887776
v -15.163716 41.649483 -1.887777
v -14.255428 31.074223 -1.796628
v -14.255428 41.649487 -1.796628
v -13.328875 31.074223 -1.675647
v -13.328875 41.649483 -1.675646
v -12.373619 31.074223 -1.496117
v -12.373619 41.649483 -1.496117
v -11.394333 31.074223 -1.277657
v -11.394333 41.649487 -1.277656
v -10.402903 31.074223 -1.038762
v -10.402903 41.649483 -1.038762
v -9.378026 31.074223 -0.778455
v -9.378026 41.649483 -0.778455
v -8.341211 31.074223 -0.518895
v -8.341211 41.649483 -0.518895
v -7.269663 31.074223 -0.267102
v -7.269663 41.649483 -0.267102
v -6.166732 31.074223 -0.039093
v -6.166732 41.649487 -0.039093
v -5.032305 31.074223 0.162840
v -5.032305 41.649483 0.162840
v -3.830252 31.074223 0.282162
v -3.830252 41.649487 0.282162
v -2.602708 31.074223 0.356084
v -2.602708 41.649483 0.356084
v -1.284628 31.074223 0.236404
v -1.284628 41.649487 0.236403
v 0.038545 31.074223 -0.015804
v 0.038545 41.649483 -0.015804
v -19.754112 31.074223 -0.375066
v -19.754112 41.649487 -0.375066
v -18.856224 31.074223 -0.887738
v -18.856224 41.649487 -0.887738
v -18.230114 31.074223 -1.245556
v -18.230114 41.649487 -1.245556
v -17.551180 31.074223 -1.513614
v -17.551180 41.649483 -1.513615
v -16.821869 31.074223 -1.708924
v -16.821869 41.649483 -1.708924
v -16.006077 31.074223 -1.769240
v -16.006077 41.649483 -1.769240
v -15.164232 31.074223 -1.800334
v -15.164232 41.649483 -1.800334
v -14.255943 31.074223 -1.709186
v -14.255943 41.649487 -1.709186
v -13.329390 31.074223 -1.588204
v -13.329390 41.649483 -1.588204
v -12.374133 31.074223 -1.408675
v -12.374133 41.649483 -1.408675
v -11.394847 31.074223 -1.190215
v -11.394847 41.649487 -1.190214
v -10.403419 31.074223 -0.951321
v -10.403419 41.649483 -0.951321
v -9.378540 31.074223 -0.691013
v -9.378540 41.649483 -0.691014
v -8.341725 31.074223 -0.431453
v -8.341725 41.649483 -0.431453
v -7.270178 31.074223 -0.179660
v -7.270178 41.649483 -0.179660
v -6.167245 31.074223 0.048348
v -6.167245 41.649487 0.048349
v -5.032819 31.074223 0.250282
v -5.032819 41.649483 0.250282
v -3.830766 31.074223 0.369604
v -3.830766 41.649487 0.369604
v -2.603222 31.074223 0.443526
v -2.603222 41.649483 0.443526
v -1.285142 31.074223 0.323846
v -1.285142 41.649487 0.323846
v 0.038031 31.074223 0.071638
v 0.038031 41.649483 0.071638
vn -1.0000 -0.0000 -0.0000
vn -0.0000 -0.0000 1.0000
vn 1.0000 -0.0000 -0.0000
vn -0.0000 -0.0000 -1.0000
vn -0.0000 -1.0000 -0.0000
vn -0.0000 1.0000 -0.0000
vn -0.4962 -0.0000 -0.8682
vn -0.4958 -0.0000 -0.8684
vn -0.3672 -0.0000 -0.9301
vn -0.0737 -0.0000 -0.9973
vn -0.2587 -0.0000 -0.9660
vn -0.0369 -0.0000 -0.9993
vn 0.1295 -0.0000 -0.9916
vn 0.0998 -0.0000 -0.9950
vn 0.1847 -0.0000 -0.9828
vn 0.2343 -0.0000 -0.9722
vn 0.2177 -0.0000 -0.9760
vn 0.2428 -0.0000 -0.9701
vn 0.2462 -0.0000 -0.9692
vn 0.2288 -0.0000 -0.9735
vn 0.1752 -0.0000 -0.9845
vn 0.2024 -0.0000 -0.9793
vn 0.0988 -0.0000 -0.9951
vn -0.0904 -0.0000 -0.9959
vn 0.0601 -0.0000 -0.9982
vn -0.1872 -0.0000 -0.9823
vn 0.4962 -0.0000 0.8682
vn 0.4958 -0.0000 0.8684
vn 0.3672 -0.0000 0.9301
vn 0.0737 -0.0000 0.9973
vn 0.2587 -0.0000 0.9660
vn 0.0369 -0.0000 0.9993
vn -0.1295 -0.0000 0.9916
vn -0.0998 -0.0000 0.9950
vn -0.1847 -0.0000 0.9828
vn -0.2343 -0.0000 0.9722
vn -0.2177 -0.0000 0.9760
vn -0.2428 -0.0000 0.9701
vn -0.2462 -0.0000 0.9692
vn -0.2288 -0.0000 0.9735
vn -0.1752 -0.0000 0.9845
vn -0.2024 -0.0000 0.9793
vn -0.0988 -0.0000 0.9951
vn 0.0904 -0.0000 0.9959
vn -0.0601 -0.0000 0.9982
vn 0.1872 -0.0000 0.9823
vn -1.0000 -0.0000 -0.0059
vn 1.0000 -0.0000 0.0059
vt 0.502372 0.344045
vt 0.993251 0.344045
vt 0.993251 0.325948
vt 0.502372 0.325948
vt 0.997751 0.312205
vt 0.506885 0.312205
vt 0.506885 0.325779
vt 0.997751 0.325777
vt 0.488799 0.325948
vt -0.002080 0.325948
vt -0.002080 0.344045
vt 0.488799 0.344045
vt -0.002080 0.325779
vt 0.488786 0.325779
vt 0.488786 0.312205
vt -0.002080 0.312207
vt 0.943902 0.997273
vt 0.908697 0.997273
vt 0.908696 0.497389
vt 0.943901 0.497389
vt 0.994376 0.497389
vt 0.994377 0.997273
vt 0.873062 0.997273
vt 0.873062 0.497389
vt 0.836204 0.997273
vt 0.796270 0.997273
vt 0.796270 0.497389
vt 0.836203 0.497389
vt 0.755145 0.997273
vt 0.755144 0.497389
vt 0.710581 0.997273
vt 0.664964 0.997273
vt 0.664964 0.497389
vt 0.710580 0.497389
vt 0.617514 0.997273
vt 0.617513 0.497389
vt 0.568531 0.997273
vt 0.518746 0.997273
vt 0.518746 0.497389
vt 0.568531 0.497389
vt 0.467125 0.997273
vt 0.414948 0.997273
vt 0.414948 0.497389
vt 0.467125 0.497389
vt 0.361211 0.997273
vt 0.361212 0.497389
vt 0.306230 0.997273
vt 0.249978 0.997273
vt 0.249979 0.497389
vt 0.306230 0.497389
vt 0.191008 0.997273
vt 0.191008 0.497389
vt 0.130973 0.997273
vt 0.066362 0.997273
vt 0.066362 0.497389
vt 0.130973 0.497389
vt 0.000604 0.997273
vt 0.000604 0.497389
vt 0.941264 0.998578
vt 0.941265 0.492496
vt 0.906167 0.492496
vt 0.906167 0.998578
vt 0.991585 0.998578
vt 0.991585 0.492496
vt 0.870642 0.492496
vt 0.870642 0.998578
vt 0.833896 0.998578
vt 0.833896 0.492496
vt 0.794084 0.492496
vt 0.794084 0.998578
vt 0.753084 0.492496
vt 0.753085 0.998578
vt 0.708657 0.998578
vt 0.708657 0.492496
vt 0.663180 0.492496
vt 0.663180 0.998578
vt 0.615874 0.492496
vt 0.615874 0.998578
vt 0.567042 0.998578
vt 0.567042 0.492496
vt 0.517409 0.492496
vt 0.517409 0.998578
vt 0.465946 0.998578
vt 0.465945 0.492496
vt 0.413927 0.492496
vt 0.413928 0.998578
vt 0.360356 0.492496
vt 0.360356 0.998578
vt 0.305542 0.998578
vt 0.305542 0.492496
vt 0.249463 0.492496
vt 0.249463 0.998578
vt 0.190673 0.492496
vt 0.190673 0.998578
vt 0.130821 0.998578
vt 0.130821 0.492496
vt 0.066407 0.492496
vt 0.066407 0.998578
vt 0.000850 0.492496
vt 0.000850 0.998578
vt 0.819613 0.067723
vt 0.721014 0.067723
vt 0.721002 0.066003
vt 0.819602 0.066002
vt 0.594108 0.172586
vt 0.581155 0.174942
vt 0.581155 0.173757
vt 0.594108 0.171402
vt 0.726607 0.148275
vt 0.709973 0.149179
vt 0.709973 0.147994
vt 0.726607 0.147091
vt 0.533037 0.180145
vt 0.544035 0.178802
vt 0.544085 0.179986
vt 0.533086 0.181329
vt 0.648599 0.191953
vt 0.663260 0.194668
vt 0.663310 0.195852
vt 0.648648 0.193137
vt 0.544883 0.177181
vt 0.533838 0.176299
vt 0.533838 0.175114
vt 0.544883 0.175996
vt 0.663341 0.156345
vt 0.648807 0.159670
vt 0.648807 0.158486
vt 0.663341 0.155161
vt 0.506347 0.165013
vt 0.494225 0.157997
vt 0.494225 0.156813
vt 0.506347 0.163829
vt 0.607391 0.169705
vt 0.607391 0.168521
vt 0.726809 0.200087
vt 0.744566 0.197616
vt 0.744616 0.198800
vt 0.726858 0.201270
vt 0.494225 0.200086
vt 0.506043 0.192570
vt 0.506092 0.193753
vt 0.494274 0.201269
vt 0.593408 0.181335
vt 0.606799 0.183659
vt 0.606849 0.184842
vt 0.593458 0.182519
vt 0.744451 0.150001
vt 0.744451 0.148817
vt 0.555405 0.177838
vt 0.555455 0.179021
vt 0.678331 0.197041
vt 0.678380 0.198225
vt 0.721002 0.067892
vt 0.819602 0.067892
vt 0.819613 0.069613
vt 0.721014 0.069613
vt 0.556284 0.177669
vt 0.556284 0.176485
vt 0.678299 0.153344
vt 0.678299 0.152160
vt 0.514283 0.187324
vt 0.514332 0.188507
vt 0.620368 0.186251
vt 0.620417 0.187434
vt 0.762307 0.193349
vt 0.762356 0.194533
vt 0.514799 0.169910
vt 0.514799 0.168725
vt 0.620839 0.166548
vt 0.620839 0.165364
vt 0.762354 0.153523
vt 0.762354 0.152338
vt 0.567753 0.178485
vt 0.567803 0.179668
vt 0.693811 0.199041
vt 0.693860 0.200224
vt 0.568595 0.176507
vt 0.568595 0.175322
vt 0.693681 0.150699
vt 0.693681 0.149515
vt 0.523295 0.183259
vt 0.523345 0.184442
vt 0.634403 0.189111
vt 0.634452 0.190295
vt 0.523974 0.173595
vt 0.523974 0.172411
vt 0.634742 0.163104
vt 0.634742 0.161919
vt 0.580368 0.179523
vt 0.580417 0.180707
vt 0.710152 0.199879
vt 0.710202 0.201063
s 0
f 2/1/1 1/2/1 3/3/1 4/4/1
f 4/5/2 3/6/2 7/7/2 8/8/2
f 8/9/3 7/10/3 5/11/3 6/12/3
f 6/13/4 5/14/4 1/15/4 2/16/4
f 1/15/5 5/14/5 7/7/5 3/6/5
f 6/12/6 2/1/6 4/4/6 8/9/6
f 12/17/7 14/18/7 13/19/7 11/20/7
f 12/17/8 11/20/8 9/21/8 10/22/8
f 14/18/9 16/23/9 15/24/9 13/19/9
f 18/25/10 20/26/10 19/27/10 17/28/10
f 16/23/11 18/25/11 17/28/11 15/24/11
f 20/26/12 22/29/12 21/30/12 19/27/12
f 24/31/13 26/32/13 25/33/13 23/34/13
f 22/29/14 24/31/14 23/34/14 21/30/14
f 26/32/15 28/35/15 27/36/15 25/33/15
f 30/37/16 32/38/16 31/39/16 29/40/16
f 28/35/17 30/37/17 29/40/17 27/36/17
f 34/41/18 36/42/18 35/43/18 33/44/18
f 32/38/19 34/41/19 33/44/19 31/39/19
f 36/42/20 38/45/20 37/46/20 35/43/20
f 40/47/21 42/48/21 41/49/21 39/50/21
f 38/45/22 40/47/22 39/50/22 37/46/22
f 42/48/23 44/51/23 43/52/23 41/49/23
f 46/53/24 48/54/24 47/55/24 45/56/24
f 44/51/25 46/53/25 45/56/25 43/52/25
f 48/54/26 50/57/26 49/58/26 47/55/26
f 54/59/27 53/60/27 55/61/27 56/62/27
f 54/59/28 52/63/28 51/64/28 53/60/28
f 56/62/29 55/61/29 57/65/29 58/66/29
f 60/67/30 59/68/30 61/69/30 62/70/30
f 58/66/31 57/65/31 59/68/31 60/67/31
f 62/70/32 61/69/32 63/71/32 64/72/32
f 66/73/33 65/74/33 67/75/33 68/76/33
f 64/72/34 63/71/34 65/74/34 66/73/34
f 68/76/35 67/75/35 69/77/35 70/78/35
f 72/79/36 71/80/36 73/81/36 74/82/36
f 70/78/37 69/77/37 71/80/37 72/79/37
f 76/83/38 75/84/38 77/85/38 78/86/38
f 74/82/39 73/81/39 75/84/39 76/83/39
f 78/86/40 77/85/40 79/87/40 80/88/40
f 82/89/41 81/90/41 83/91/41 84/92/41
f 80/88/42 79/87/42 81/90/42 82/89/42
f 84/92/43 83/91/43 85/93/43 86/94/43
f 88/95/44 87/96/44 89/97/44 90/98/44
f 86/94/45 85/93/45 87/96/45 88/95/45
f 90/98/46 89/97/46 91/99/46 92/100/46
f 10/101/47 9/102/47 51/103/47 52/104/47
f 28/105/6 26/106/6 68/107/6 70/108/6
f 46/109/6 44/110/6 86/111/6 88/112/6
f 17/113/5 19/114/5 61/115/5 59/116/5
f 35/117/5 37/118/5 79/119/5 77/120/5
f 20/121/6 18/122/6 60/123/6 62/124/6
f 38/125/6 36/126/6 78/127/6 80/128/6
f 12/129/6 10/130/6 52/131/6 54/132/6
f 30/133/6 28/105/6 70/108/6 72/134/6
f 45/135/5 47/136/5 89/137/5 87/138/5
f 9/139/5 11/140/5 53/141/5 51/142/5
f 27/143/5 29/144/5 71/145/5 69/146/5
f 48/147/6 46/109/6 88/112/6 90/148/6
f 19/114/5 21/149/5 63/150/5 61/115/5
f 37/118/5 39/151/5 81/152/5 79/119/5
f 49/153/48 50/154/48 92/155/48 91/156/48
f 22/157/6 20/121/6 62/124/6 64/158/6
f 40/159/6 38/125/6 80/128/6 82/160/6
f 11/140/5 13/161/5 55/162/5 53/141/5
f 29/144/5 31/163/5 73/164/5 71/145/5
f 47/136/5 49/165/5 91/166/5 89/137/5
f 14/167/6 12/129/6 54/132/6 56/168/6
f 32/169/6 30/133/6 72/134/6 74/170/6
f 50/171/6 48/147/6 90/148/6 92/172/6
f 21/149/5 23/173/5 65/174/5 63/150/5
f 39/151/5 41/175/5 83/176/5 81/152/5
f 24/177/6 22/157/6 64/158/6 66/178/6
f 42/179/6 40/159/6 82/160/6 84/180/6
f 13/161/5 15/181/5 57/182/5 55/162/5
f 31/163/5 33/183/5 75/184/5 73/164/5
f 16/185/6 14/167/6 56/168/6 58/186/6
f 34/187/6 32/169/6 74/170/6 76/188/6
f 23/173/5 25/189/5 67/190/5 65/174/5
f 41/175/5 43/191/5 85/192/5 83/176/5
f 26/106/6 24/177/6 66/178/6 68/107/6
f 44/110/6 42/179/6 84/180/6 86/111/6
f 15/181/5 17/113/5 59/116/5 57/182/5
f 33/183/5 35/117/5 77/120/5 75/184/5
f 18/122/6 16/185/6 58/186/6 60/123/6
f 36/126/6 34/187/6 76/188/6 78/127/6
f 25/189/5 27/143/5 69/146/5 67/190/5
f 43/191/5 45/135/5 87/138/5 85/192/5
